<svg xmlns="http://www.w3.org/2000/svg" width="14.719" height="17.38" viewBox="0 0 14.719 17.38">
  <defs>
    <style>
      .cls-1 {
        fill-rule: evenodd;
      }
    </style>
  </defs>
  <path id="シェイプ_19" data-name="シェイプ 19" class="cls-1" d="M307.315,4854.81a0.332,0.332,0,0,0,.331.33h1.967a0.332,0.332,0,0,0,.332-0.33v-0.97h-2.63v0.97Zm9.467,0a0.332,0.332,0,0,0,.331.33h1.967a0.331,0.331,0,0,0,.331-0.33v-0.97h-2.629v0.97Zm-3.419-17.04c-3.508,0-7.363.34-7.363,2.66v12.46a0.5,0.5,0,0,0,.5.5h13.732a0.5,0.5,0,0,0,.5-0.5v-12.46C320.726,4838.11,316.872,4837.77,313.363,4837.77Zm-3.155,1.64h6.311v1.05h-6.311v-1.05Zm-2.5,3.43a0.326,0.326,0,0,1,.332-0.33h10.645a0.326,0.326,0,0,1,.331.33v3.36a0.332,0.332,0,0,1-.331.33H308.041a0.333,0.333,0,0,1-.332-0.33v-3.36Zm2.119,8.62a0.162,0.162,0,0,1-.166.16h-0.7a0.946,0.946,0,0,1-.491-0.13l-0.688-.39a0.16,0.16,0,0,1-.083-0.14v-0.62a0.162,0.162,0,0,1,.165-0.16h1.8a0.162,0.162,0,0,1,.166.16v1.12h0Zm5.146,0.81h-3.221v-1.87h3.221v1.87Zm4.058-1.31a0.159,0.159,0,0,1-.084.14l-0.688.39a0.946,0.946,0,0,1-.491.13h-0.7a0.162,0.162,0,0,1-.166-0.16v-1.12a0.162,0.162,0,0,1,.166-0.16h1.8a0.162,0.162,0,0,1,.166.16v0.62h0Z" transform="translate(-306 -4837.78)"/>
</svg>
