<svg xmlns="http://www.w3.org/2000/svg" width="19.719" height="17.06" viewBox="0 0 19.719 17.06">
  <defs>
    <style>
      .cls-1 {
        fill-rule: evenodd;
      }
    </style>
  </defs>
  <path id="シェイプ_20" data-name="シェイプ 20" class="cls-1" d="M306.6,5301.28a0.718,0.718,0,0,0,.72.72h1.986a0.718,0.718,0,0,0,.72-0.72v-1.48H306.6v1.48Zm11.1,0a0.718,0.718,0,0,0,.72.72h1.987a0.718,0.718,0,0,0,.719-0.72v-1.48H317.7v1.48h0Zm3.709-9.34-1.01-3.66a4.558,4.558,0,0,0-4.392-3.35H311.72a4.556,4.556,0,0,0-4.391,3.35l-1.01,3.66a3.615,3.615,0,0,0,1.29,6.99H320.12A3.615,3.615,0,0,0,321.411,5291.94Zm-13.8,4.93a1.555,1.555,0,1,1,1.554-1.56A1.557,1.557,0,0,1,307.609,5296.87Zm10.594-6.62a0.3,0.3,0,0,1-.248.12h-8.18a0.3,0.3,0,0,1-.249-0.12,0.308,0.308,0,0,1-.052-0.27l0.368-1.34a2.452,2.452,0,0,1,2.354-1.79h3.338a2.454,2.454,0,0,1,2.354,1.79l0.367,1.34A0.3,0.3,0,0,1,318.2,5290.25Zm1.917,6.62a1.555,1.555,0,1,1,1.553-1.56A1.558,1.558,0,0,1,320.12,5296.87Z" transform="translate(-304 -5284.94)"/>
</svg>
