<svg xmlns="http://www.w3.org/2000/svg" width="17.781" height="19.04" viewBox="0 0 17.781 19.04">
  <defs>
    <style>
      .cls-1 {
        fill-rule: evenodd;
      }
    </style>
  </defs>
  <path id="シェイプ_18" data-name="シェイプ 18" class="cls-1" d="M281.51,4573.15l-6.614-3.09v-4.88c0-1.17-.836-2.56-2.008-2.56s-2.009,1.39-2.009,2.56v4.88l-6.614,3.09a0.617,0.617,0,0,0-.265.47v2.11a0.21,0.21,0,0,0,.294.21l6.994-1.83v4.44s-1.138.83-1.819,1.29a0.728,0.728,0,0,0,.151,1.36h2.548a0.793,0.793,0,0,0,1.439,0h2.548a0.727,0.727,0,0,0,.151-1.36c-0.681-.46-1.818-1.29-1.818-1.29v-4.44l6.992,1.83a0.211,0.211,0,0,0,.295-0.21v-2.11A0.614,0.614,0,0,0,281.51,4573.15Z" transform="translate(-264 -4562.62)"/>
</svg>
