<svg xmlns="http://www.w3.org/2000/svg" width="16.437" height="17.88" viewBox="0 0 16.437 17.88">
  <defs>
    <style>
      .cls-1 {
        fill-rule: evenodd;
      }
    </style>
  </defs>
  <path id="シェイプ_21" data-name="シェイプ 21" class="cls-1" d="M253.673,4571.83a29.045,29.045,0,0,0-.609-6.77c-0.366-1.34-.948-1.39-1.354-1.5a10.778,10.778,0,0,0-1.651-.08c2.274,2.4,1.99,6.2,1.99,6.2h-0.244c-0.135-5.53-2.9-6.32-3.478-6.42s-2.523-.15-2.523-0.15-1.937.06-2.524,0.15-3.342.89-3.478,6.42h-0.243s-0.284-3.8,1.989-6.2a10.778,10.778,0,0,0-1.651.08c-0.406.11-.988,0.16-1.353,1.5a28.937,28.937,0,0,0-.609,6.77,5.945,5.945,0,0,0-.122,3.65c0.2,0.69.528,2.32,3.9,2.64a41.992,41.992,0,0,0,8.187,0c3.369-.32,3.694-1.95,3.9-2.64A5.943,5.943,0,0,0,253.673,4571.83Zm-11.761-4.36-0.842-.73a0.466,0.466,0,0,1-.081-0.62l0.833-1.21a0.191,0.191,0,0,1,.132-0.09,0.258,0.258,0,0,1,.15.04l0.35,0.28-0.391,2.27a0.081,0.081,0,0,1-.06.07A0.077,0.077,0,0,1,241.912,4567.47Zm3.276,3.25h-2.53a1.357,1.357,0,0,1-.637-1.23h3.167v1.23h0Zm-2.746-3.19,0.4-2.34h5.916l0.4,2.34h-6.723Zm6.508,3.19h-2.531v-1.23h3.167A1.359,1.359,0,0,1,248.95,4570.72Zm1.588-3.98-0.842.73a0.1,0.1,0,0,1-.151-0.06l-0.392-2.27,0.35-.28a0.258,0.258,0,0,1,.15-0.04,0.191,0.191,0,0,1,.132.09l0.833,1.21A0.467,0.467,0,0,1,250.538,4566.74Zm-4.209,12.15a6.914,6.914,0,0,0-1.051,0c-0.607,0-1.727-.04-3.62-0.22a6.177,6.177,0,0,1-3.067-1,15.764,15.764,0,0,0,.516,1.63,2.522,2.522,0,0,0,1.827,1.46,49.52,49.52,0,0,0,9.739,0,2.518,2.518,0,0,0,1.827-1.46,15.7,15.7,0,0,0,.517-1.63,6.184,6.184,0,0,1-3.067,1C248.056,4578.85,246.936,4578.89,246.329,4578.89Z" transform="translate(-237.594 -4563.12)"/>
</svg>
