<svg xmlns="http://www.w3.org/2000/svg" width="13.781" height="18.47" viewBox="0 0 13.781 18.47">
  <defs>
    <style>
      .cls-1 {
        fill-rule: evenodd;
      }
    </style>
  </defs>
  <path id="シェイプ_17" data-name="シェイプ 17" class="cls-1" d="M313.889,4562.69c-5.346,0-6.889,1.94-6.889,3.42v9.02a2.362,2.362,0,0,0,2.359,2.36h9.06a2.361,2.361,0,0,0,2.359-2.36v-9.02C320.778,4564.63,319.235,4562.69,313.889,4562.69Zm-2.5,2.13h4.994a0.6,0.6,0,1,1,0,1.2h-4.994A0.6,0.6,0,1,1,311.392,4564.82Zm1.865,6.1h-4.593v-2.96h4.593v2.96h0Zm5.857,0h-4.593v-2.96h4.593v2.96h0Zm-2.737,7.28,0.458,0.68h-5.891l0.458-.68h-1.4l-2.312,2.96h1.7l1.053-1.55h6.878l1.053,1.55h1.7l-2.312-2.96h-1.4Z" transform="translate(-307 -4562.69)"/>
</svg>
